<?xml version="1.0" encoding="UTF-8" standalone="no"?>
<svg
   xmlns:dc="http://purl.org/dc/elements/1.1/"
   xmlns:cc="http://creativecommons.org/ns#"
   xmlns:rdf="http://www.w3.org/1999/02/22-rdf-syntax-ns#"
   xmlns:svg="http://www.w3.org/2000/svg"
   xmlns="http://www.w3.org/2000/svg"
   style="fill:none"
   id="svg4"
   version="1.1"
   viewBox="0 0 544 544"
   height="544"
   width="544">
  <defs>
    <filter
       color-interpolation-filters="sRGB"
       filterUnits="userSpaceOnUse"
       height="544"
       width="544"
       y="0"
       x="0"
       id="filter0_d">
      <feFlood
         id="feFlood2"
         result="BackgroundImageFix"
         flood-opacity="0" />
      <feColorMatrix
         id="feColorMatrix4"
         values="0 0 0 0 0 0 0 0 0 0 0 0 0 0 0 0 0 0 127 0"
         type="matrix"
         in="SourceAlpha" />
      <feOffset
         id="feOffset6"
         dy="2" />
      <feGaussianBlur
         id="feGaussianBlur8"
         stdDeviation="8" />
      <feColorMatrix
         id="feColorMatrix10"
         values="0 0 0 0 0.0190634 0 0 0 0 0.0424753 0 0 0 0 0.0929008 0 0 0 0.17 0"
         type="matrix" />
      <feBlend
         id="feBlend12"
         result="effect1_dropShadow"
         in2="BackgroundImageFix"
         mode="normal" />
      <feBlend
         id="feBlend14"
         result="shape"
         in2="effect1_dropShadow"
         in="SourceGraphic"
         mode="normal" />
    </filter>
  </defs>
  <g filter="url(#filter0_d)">
    <rect
       id="rect19"
       fill="#0aaae6"
       rx="50"
       height="512"
       width="512"
       y="14"
       x="16" />
  </g>
  <path
     style="fill:#ffffff;stroke-width:10.66666126"
     d="m 286.09317,171.30629 v -13.75594 h 56.37117 l 86.21606,127.10543 14.92245,24.75999 1.10464,-0.5504 -0.55254,-29.71252 -1.65738,-99.04294 -27.08095,-9.35402 V 156.99995 H 484.5 v 13.75594 l -18.79091,9.35402 -0.55148,205.78934 h -23.21236 l -96.16346,-146.91385 -14.92246,-24.76073 -1.10548,0.5504 0.55252,29.71294 1.10549,119.40208 29.29119,9.35381 v 13.75615 H 286.0937 V 373.244 l 21.55391,-9.35391 1.10485,-184.33015 z M 59.5,386.44976 h 86.76849 V 372.6936 l -21.55402,-6.60341 v -86.38694 h 80.68957 v 86.38694 l -21.55391,6.60341 v 13.75616 h 86.76784 V 372.6936 l -21.55401,-6.60341 V 178.45935 l 21.55401,-6.60287 v -13.75594 h -87.32069 v 13.75594 l 21.55401,6.60287 v 80.335 h -80.13682 v -80.335 l 21.55402,-6.60287 V 158.10054 H 59.5 v 13.75594 l 21.55391,6.60287 V 366.64049 L 59.5,373.2439 Z"
     id="path4" />
</svg>
